<svg width="274" height="75" viewBox="0 0 274 75" fill="none" xmlns="http://www.w3.org/2000/svg">
<path d="M54.1464 23.9834C54.1464 38.6555 45.5125 49.2514 26.6486 49.2514H16.5211V73.0588H0V0H26.6486C45.5125 0 54.1464 10.4896 54.1464 23.9834ZM36.558 24.3152C36.558 17.7825 32.084 15.107 25.2608 15.107H16.5211V34.2737H25.2608C32.084 34.2638 36.558 30.9443 36.558 24.3053V24.3152Z" fill="#252B33"/>
<path d="M172.894 23.9834C172.894 38.6555 164.263 49.2514 145.396 49.2514H135.268V73.0588H118.747V0H145.393C164.263 0 172.894 10.4896 172.894 23.9834ZM155.308 24.3152C155.308 17.7825 150.831 15.107 144.011 15.107H135.268V34.2737H144.011C150.831 34.2638 155.308 30.9443 155.308 24.3053V24.3152Z" fill="#252B33"/>
<path d="M194.643 16.5244H178.201V0.0928917H194.643V16.5244Z" fill="#252B33"/>
<path d="M178.376 23.1136H194.464V73.0588H178.376V23.1136Z" fill="#252B33"/>
<path d="M217.831 16.5244H201.393V0.0928917H217.831V16.5244Z" fill="#252B33"/>
<path d="M201.294 23.1136H217.653V73.0588H201.294V23.1136Z" fill="#252B33"/>
<path d="M274 44.3285V73.0588H257.528V48.8264C257.528 41.4372 254.954 38.1178 248.987 38.1178C243.551 38.1178 241.057 41.3311 241.057 50.1111V73.0588H224.536V23.4091H240.928V32.9792H241.143C242.811 30.1448 245.2 27.8076 248.064 26.208C250.929 24.6083 254.166 23.8038 257.442 23.8771C268.32 23.8771 274 30.1975 274 44.3285Z" fill="#252B33"/>
<path d="M56.1783 48.3119C56.1783 30.9443 66.7321 21.9385 79.5261 21.9385C82.7139 21.7203 85.9003 22.3845 88.7386 23.8588C91.5769 25.3331 93.9585 27.5611 95.6243 30.3003H95.8391V23.5452H111.937V73.0786H95.8291V66.3235H95.6143C93.9483 69.0625 91.5667 71.2903 88.7284 72.7645C85.8902 74.2388 82.704 74.9031 79.5162 74.6853C66.7255 74.6886 56.1783 65.6828 56.1783 48.3119ZM95.4127 48.3119C95.3795 46.0652 94.6867 43.8783 93.4211 42.0257C92.1555 40.173 90.3736 38.737 88.2988 37.8978C86.224 37.0586 83.9487 36.8535 81.7584 37.3084C79.568 37.7632 77.5602 38.8578 75.9867 40.4546C74.4131 42.0515 73.3439 44.0796 72.9133 46.2845C72.4826 48.4895 72.7097 50.773 73.5659 52.8489C74.4221 54.9247 75.8693 56.7002 77.7261 57.9529C79.5829 59.2056 81.7667 59.8796 84.0033 59.8903C85.5288 59.9564 87.0511 59.7012 88.4725 59.1411C89.8939 58.581 91.1829 57.7282 92.2568 56.6378C93.3307 55.5474 94.1657 54.2433 94.7081 52.8095C95.2504 51.3756 95.4882 49.8436 95.4062 48.3119H95.4127Z" fill="#252B33"/>
</svg>
