<svg width="96" height="96" viewBox="0 0 96 96" fill="none" xmlns="http://www.w3.org/2000/svg">
<g clip-path="url(#clip0_166_5533)">
<path d="M48 24V0L96 12L48 24Z" fill="#00C4DB"/>
<path d="M48 0V24L0 12L48 0Z" fill="#00C4DB"/>
<path d="M48 48V24L96 36L48 48Z" fill="#0096FF"/>
<path d="M48 24V48L0 36L48 24Z" fill="#0096FF"/>
<path d="M48 72V48L96 60L48 72Z" fill="#F1341C"/>
<path d="M48 48V72L0 60L48 48Z" fill="#F1341C"/>
<path d="M48 96V72L96 84L48 96Z" fill="#252B33"/>
<path d="M48 72V96L0 84L48 72Z" fill="#252B33"/>
</g>
<defs>
<clipPath id="clip0_166_5533">
<rect width="96" height="96" fill="white"/>
</clipPath>
</defs>
</svg>
