<svg width="96" height="96" viewBox="0 0 96 96" fill="none" xmlns="http://www.w3.org/2000/svg">
<g clip-path="url(#clip0_180_6200)">
<path d="M96 48L72 24L96 24V48Z" fill="#F1341C"/>
<path d="M72 48L48 24L72 24V48Z" fill="#F1341C"/>
<path d="M96 24L72 0L96 0V24Z" fill="#F1341C"/>
<path d="M72 24L48 0L72 0V24Z" fill="#F1341C"/>
<path d="M48 48L24 24L48 24V48Z" fill="#30BBD7"/>
<path d="M24 48L0 24L24 24L24 48Z" fill="#30BBD7"/>
<path d="M48 24L24 0L48 0V24Z" fill="#30BBD7"/>
<path d="M24 24L0 0L24 0L24 24Z" fill="#30BBD7"/>
<path d="M96 96L72 72H96V96Z" fill="#252B33"/>
<path d="M72 96L48 72H72V96Z" fill="#252B33"/>
<path d="M96 72L72 48H96V72Z" fill="#252B33"/>
<path d="M72 72L48 48H72V72Z" fill="#252B33"/>
<path d="M48 96L24 72H48V96Z" fill="#0096FF"/>
<path d="M24 96L0 72H24L24 96Z" fill="#0096FF"/>
<path d="M48 72L24 48H48V72Z" fill="#0096FF"/>
<path d="M24 72L0 48H24L24 72Z" fill="#0096FF"/>
</g>
<defs>
<clipPath id="clip0_180_6200">
<rect width="96" height="96" fill="white"/>
</clipPath>
</defs>
</svg>
